# xmcd
#
# Track frame offsets:
#	150
#	16710
#	35052
#	50875
#	65492
#	84000
#	102132
#	114545
#	129015
#	144782
#	162467
#
# Disc length: 2354 seconds
#
# Revision: 1
# Processed by: cddbd v1.5.2PL0 Copyright (c) Steve Scherf et al.
# Submitted via: audiograbber 1.83.01
#
DISCID=8409300b
DTITLE=Art Dayton - No Strings Attached
DYEAR=1999
DGENRE=Country
TTITLE0=Not Enough
TTITLE1=People Love to Talk
TTITLE2=All My Life
TTITLE3=Bitter Sweet
TTITLE4=Daddy I Miss You
TTITLE5=No Strings Attached
TTITLE6=Take My Hand
TTITLE7=We're Both Blue
TTITLE8=Second Chance
TTITLE9=Hand in Hand
TTITLE10=What I'm Missing
EXTD=
EXTT0=
EXTT1=
EXTT2=
EXTT3=
EXTT4=
EXTT5=
EXTT6=
EXTT7=
EXTT8=
EXTT9=
EXTT10=
PLAYORDER=
